<svg width="648" height="109" viewBox="0 0 648 109" fill="none" xmlns="http://www.w3.org/2000/svg">
<path d="M34.2 107V21.8H0.6V1.99999H92.1V21.8H58.5V107H34.2ZM127.525 44.3H178.075V63.2H127.525V44.3ZM129.325 87.5H186.475V107H105.175V1.99999H184.525V21.5H129.325V87.5ZM256.809 108.8C248.509 108.8 240.809 107.45 233.709 104.75C226.709 102.05 220.609 98.25 215.409 93.35C210.309 88.45 206.309 82.7 203.409 76.1C200.609 69.5 199.209 62.3 199.209 54.5C199.209 46.7 200.609 39.5 203.409 32.9C206.309 26.3 210.359 20.55 215.559 15.65C220.759 10.75 226.859 6.94999 233.859 4.24999C240.859 1.55 248.459 0.199998 256.659 0.199998C264.959 0.199998 272.559 1.55 279.459 4.24999C286.459 6.94999 292.509 10.75 297.609 15.65C302.809 20.55 306.859 26.3 309.759 32.9C312.659 39.4 314.109 46.6 314.109 54.5C314.109 62.3 312.659 69.55 309.759 76.25C306.859 82.85 302.809 88.6 297.609 93.5C292.509 98.3 286.459 102.05 279.459 104.75C272.559 107.45 265.009 108.8 256.809 108.8ZM256.659 88.1C261.359 88.1 265.659 87.3 269.559 85.7C273.559 84.1 277.059 81.8 280.059 78.8C283.059 75.8 285.359 72.25 286.959 68.15C288.659 64.05 289.509 59.5 289.509 54.5C289.509 49.5 288.659 44.95 286.959 40.85C285.359 36.75 283.059 33.2 280.059 30.2C277.159 27.2 273.709 24.9 269.709 23.3C265.709 21.7 261.359 20.9 256.659 20.9C251.959 20.9 247.609 21.7 243.609 23.3C239.709 24.9 236.259 27.2 233.259 30.2C230.259 33.2 227.909 36.75 226.209 40.85C224.609 44.95 223.809 49.5 223.809 54.5C223.809 59.4 224.609 63.95 226.209 68.15C227.909 72.25 230.209 75.8 233.109 78.8C236.109 81.8 239.609 84.1 243.609 85.7C247.609 87.3 251.959 88.1 256.659 88.1Z" fill="white"/>
<path d="M332.372 107V1.99999H380.072C391.472 1.99999 401.522 4.19999 410.222 8.6C418.922 12.9 425.722 18.95 430.622 26.75C435.522 34.55 437.972 43.8 437.972 54.5C437.972 65.1 435.522 74.35 430.622 82.25C425.722 90.05 418.922 96.15 410.222 100.55C401.522 104.85 391.472 107 380.072 107H332.372ZM356.672 87.05H378.872C385.872 87.05 391.922 85.75 397.022 83.15C402.222 80.45 406.222 76.65 409.022 71.75C411.922 66.85 413.372 61.1 413.372 54.5C413.372 47.8 411.922 42.05 409.022 37.25C406.222 32.35 402.222 28.6 397.022 26C391.922 23.3 385.872 21.95 378.872 21.95H356.672V87.05ZM524.548 91.4L453.148 64.25V44.75L524.548 17.6V36.35L460.198 59.75V49.25L524.548 72.65V91.4ZM577.593 107L532.293 1.99999H558.543L598.143 95H582.693L622.893 1.99999H647.043L601.593 107H577.593Z" fill="#F19F00"/>
</svg>
