<svg width="648" height="183" viewBox="0 0 648 183" fill="none" xmlns="http://www.w3.org/2000/svg">
<path d="M34.2 145V59.8H0.6V40H92.1V59.8H58.5V145H34.2ZM127.525 82.3H178.075V101.2H127.525V82.3ZM129.325 125.5H186.475V145H105.175V40H184.525V59.5H129.325V125.5ZM256.809 146.8C248.509 146.8 240.809 145.45 233.709 142.75C226.709 140.05 220.609 136.25 215.409 131.35C210.309 126.45 206.309 120.7 203.409 114.1C200.609 107.5 199.209 100.3 199.209 92.5C199.209 84.7 200.609 77.5 203.409 70.9C206.309 64.3 210.359 58.55 215.559 53.65C220.759 48.75 226.859 44.95 233.859 42.25C240.859 39.55 248.459 38.2 256.659 38.2C264.959 38.2 272.559 39.55 279.459 42.25C286.459 44.95 292.509 48.75 297.609 53.65C302.809 58.55 306.859 64.3 309.759 70.9C312.659 77.4 314.109 84.6 314.109 92.5C314.109 100.3 312.659 107.55 309.759 114.25C306.859 120.85 302.809 126.6 297.609 131.5C292.509 136.3 286.459 140.05 279.459 142.75C272.559 145.45 265.009 146.8 256.809 146.8ZM256.659 126.1C261.359 126.1 265.659 125.3 269.559 123.7C273.559 122.1 277.059 119.8 280.059 116.8C283.059 113.8 285.359 110.25 286.959 106.15C288.659 102.05 289.509 97.5 289.509 92.5C289.509 87.5 288.659 82.95 286.959 78.85C285.359 74.75 283.059 71.2 280.059 68.2C277.159 65.2 273.709 62.9 269.709 61.3C265.709 59.7 261.359 58.9 256.659 58.9C251.959 58.9 247.609 59.7 243.609 61.3C239.709 62.9 236.259 65.2 233.259 68.2C230.259 71.2 227.909 74.75 226.209 78.85C224.609 82.95 223.809 87.5 223.809 92.5C223.809 97.4 224.609 101.95 226.209 106.15C227.909 110.25 230.209 113.8 233.109 116.8C236.109 119.8 239.609 122.1 243.609 123.7C247.609 125.3 251.959 126.1 256.659 126.1Z" fill="#232323"/>
<path d="M332.372 145V40H380.072C391.472 40 401.522 42.2 410.222 46.6C418.922 50.9 425.722 56.95 430.622 64.75C435.522 72.55 437.972 81.8 437.972 92.5C437.972 103.1 435.522 112.35 430.622 120.25C425.722 128.05 418.922 134.15 410.222 138.55C401.522 142.85 391.472 145 380.072 145H332.372ZM356.672 125.05H378.872C385.872 125.05 391.922 123.75 397.022 121.15C402.222 118.45 406.222 114.65 409.022 109.75C411.922 104.85 413.372 99.1 413.372 92.5C413.372 85.8 411.922 80.05 409.022 75.25C406.222 70.35 402.222 66.6 397.022 64C391.922 61.3 385.872 59.95 378.872 59.95H356.672V125.05ZM524.548 129.4L453.148 102.25V82.75L524.548 55.6V74.35L460.198 97.75V87.25L524.548 110.65V129.4ZM577.593 145L532.293 40H558.543L598.143 133H582.693L622.893 40H647.043L601.593 145H577.593Z" fill="#F19F00"/>
</svg>
